# xmcd CD database file
#
# Track frame offsets:
#	150
#	30590
#	39758
#	51010
#	69110
#	85950
#	110758
#	134045
#	145628
#	159115
#	180938
#	204998
#	209898
#	228590
#	265655
#	311368
#
# Disc length: 4697 seconds
#
# Revision: 0
# Processed by: cddbd v1.5.2PL0 Copyright (c) Steve Scherf et al.
# Submitted via: CDex 1.50Beta7
#
DISCID=d2125710
DTITLE=Muddy Waters and The Rolling Stones - Sweet Home Chicago (Recorded Live At Buddy Guy's Checkerboard Lounge, Chicago, 11/22/1981) [CD2)
DYEAR=1981
DGENRE=Blues
TTITLE0=Talking About My Woman
TTITLE1=I Want To Be Loved
TTITLE2=I Can't Get Be Satisfied
TTITLE3=I Just Want To Make Love To You
TTITLE4=Lonely At The Top
TTITLE5=Just Another Night
TTITLE6=Miss You
TTITLE7=State Of Shock
TTITLE8=It's Only Rock'N'Roll
TTITLE9=It's Only Love
TTITLE10=Tonight
TTITLE11=Let's Dance
TTITLE12=Let's Dance 2
TTITLE13=Slave
TTITLE14=Tie You Up
TTITLE15=She Was Hot
EXTD=YEAR: 1981
EXTT0=
EXTT1=
EXTT2=
EXTT3=
EXTT4=
EXTT5=
EXTT6=
EXTT7=
EXTT8=
EXTT9=
EXTT10=
EXTT11=
EXTT12=
EXTT13=
EXTT14=
EXTT15=
PLAYORDER=
